<?xml version="1.0" standalone="no"?>
<!DOCTYPE svg PUBLIC "-//W3C//DTD SVG 20010904//EN"
 "http://www.w3.org/TR/2001/REC-SVG-20010904/DTD/svg10.dtd">
<svg version="1.0" xmlns="http://www.w3.org/2000/svg"
 width="1025.000000pt" height="1025.000000pt" viewBox="0 0 1025.000000 1025.000000"
 preserveAspectRatio="xMidYMid meet">
<metadata>
Created by potrace 1.14, written by Peter Selinger 2001-2017
</metadata>
<g transform="translate(0.000000,1025.000000) scale(0.100000,-0.100000)"
fill="#000000" stroke="none">
<path d="M0 5125 l0 -5125 5125 0 5125 0 0 5125 0 5125 -5125 0 -5125 0 0
-5125z m5322 2210 c250 -29 442 -82 668 -183 250 -113 452 -254 661 -462 293
-293 439 -546 578 -1010 6 -19 18 -69 26 -110 76 -362 54 -718 -67 -1100 l-34
-105 -232 -3 -232 -2 0 24 c0 19 8 27 34 36 59 19 103 85 113 170 7 60 -19
149 -80 271 -51 102 -74 113 -106 51 -54 -107 -121 -278 -121 -311 0 -66 20
-114 67 -159 54 -52 54 -77 0 -76 -20 0 -173 1 -339 3 -277 3 -299 4 -258 17
26 8 59 11 79 8 22 -5 32 -3 28 3 -4 6 0 10 9 9 13 -1 15 27 14 228 0 126 -5
236 -10 245 -8 17 -129 41 -482 98 l-97 15 50 46 c144 130 229 323 229 520 0
182 -58 322 -184 448 -63 63 -94 86 -138 102 -72 27 -215 52 -295 52 -59 0
-63 1 -63 23 0 42 53 130 95 159 22 15 81 39 130 53 107 31 161 61 208 115 58
68 84 182 51 228 -20 29 -48 28 -130 -8 -38 -16 -101 -38 -141 -50 -40 -11
-86 -32 -104 -47 -32 -27 -34 -44 -13 -119 8 -29 -23 -40 -47 -18 -11 10 -19
22 -19 29 0 7 -9 20 -20 30 -17 15 -24 16 -47 6 -50 -23 -99 -69 -129 -123
-27 -50 -29 -60 -29 -164 l0 -111 -92 -17 c-146 -25 -193 -47 -277 -129 -129
-127 -193 -255 -203 -407 -13 -203 71 -417 221 -558 l54 -51 -34 -6 c-19 -3
-51 -7 -71 -10 -104 -14 -490 -90 -500 -98 -10 -7 -13 -69 -13 -248 l0 -239
30 -6 c17 -4 30 -10 30 -14 0 -14 -92 -20 -291 -20 l-199 0 0 28 c0 20 9 33
34 49 47 30 76 95 76 169 0 52 -7 74 -63 189 -35 72 -70 135 -78 141 -32 26
-55 -1 -105 -123 -43 -105 -48 -127 -49 -195 0 -69 3 -80 30 -120 18 -25 47
-51 72 -63 34 -16 42 -25 43 -48 l0 -27 -232 2 -232 3 -29 75 c-187 489 -173
1060 39 1557 300 704 923 1202 1654 1322 207 34 370 39 562 16z m143 -706
c-60 -28 -137 -50 -122 -33 9 9 155 62 172 62 6 0 -17 -13 -50 -29z m-330
-169 c-3 -6 -19 -17 -35 -25 -24 -12 -28 -13 -24 -1 3 7 15 18 27 24 29 14 40
14 32 2z m-275 -490 c82 -17 82 -17 70 -40 -16 -31 -221 -315 -229 -318 -9 -3
-136 129 -175 180 l-28 37 21 30 c11 16 55 60 96 99 l75 70 57 -24 c32 -13 83
-28 113 -34z m-1040 -1660 c0 -5 -2 -10 -4 -10 -3 0 -8 5 -11 10 -3 6 -1 10 4
10 6 0 11 -4 11 -10z m3100 -368 c-2 -29 -223 -285 -327 -378 -454 -405 -1019
-604 -1609 -565 -177 12 -279 28 -422 66 -367 97 -702 296 -984 581 -92 93
-248 280 -248 297 0 4 808 7 1795 7 987 -1 1795 -4 1795 -8z"/>
<path d="M4502 6703 c4 -22 43 -25 43 -3 0 8 -11 16 -23 18 -19 3 -23 0 -20
-15z"/>
<path d="M3848 5993 c-46 -29 -71 -86 -66 -153 3 -49 10 -66 41 -106 37 -47
37 -48 37 -140 0 -91 -1 -94 -25 -100 -78 -19 -57 -125 31 -154 65 -22 139 34
132 101 -3 31 -13 41 -50 53 -16 5 -18 19 -18 101 0 89 2 97 25 117 83 72 92
178 22 254 -39 42 -89 53 -129 27z"/>
<path d="M6223 5978 c-39 -41 -53 -76 -53 -134 0 -55 20 -106 51 -128 22 -15
24 -25 27 -116 l4 -99 -36 -15 c-30 -13 -36 -20 -36 -46 0 -61 45 -100 116
-100 51 0 107 55 102 102 -2 26 -10 36 -35 48 l-33 15 0 91 c0 86 2 93 30 129
54 68 60 135 19 217 -38 75 -104 90 -156 36z"/>
<path d="M4510 3770 c-13 -9 -11 -13 10 -31 19 -16 32 -19 60 -14 43 8 58 21
43 36 -16 16 -95 22 -113 9z"/>
<path d="M5152 3771 c-8 -4 -12 -19 -10 -32 3 -22 8 -24 73 -27 102 -5 135 3
135 32 0 13 -6 26 -13 29 -22 8 -171 7 -185 -2z"/>
</g>
</svg>
